PathFileType	4	(X/Y/Z)	C:\Users\WrightLab\Desktop\Jo\P2_Trial18.trc
DataRate	CameraRate	NumFrames	NumMarkers	Units	OrigDataRate	OrigDataStartFrame	OrigNumFrames
100.00	100.00	       32	19	mm	100.00	379	       433
Frame#	Time	Headset_Front			Headset_Back			Headset_Left			Headset_Right			Left_Shoulder			Right_Shoulder			Sternum			C7			Left Elbow			Right Elbow			Left Wrist			Right Wrist			Left ASIS			Right ASIS			S2			Left Knee			Right Knee			Left Ankle			Right Ankle			
		X1	Y1	Z1	X2	Y2	Z2	X3	Y3	Z3	X4	Y4	Z4	X5	Y5	Z5	X6	Y6	Z6	X7	Y7	Z7	X8	Y8	Z8	X9	Y9	Z9	X10	Y10	Z10	X11	Y11	Z11	X12	Y12	Z12	X13	Y13	Z13	X14	Y14	Z14	X15	Y15	Z15	X16	Y16	Z16	X17	Y17	Z17	X18	Y18	Z18	X19	Y19	Z19	

379	3.780																												-49.29607	1248.67957	2400.26367				68.80119	1035.72656	2477.60840													-157.46014	589.78058	2442.26294	-562.19727	136.98926	2371.33667				
380	3.790																												-46.25832	1251.48254	2416.92188				75.12219	1041.41467	2496.60156													-160.89323	593.96027	2461.58203	-563.47076	135.66771	2370.83057				
381	3.800																												-44.19696	1254.47864	2433.94360				81.29159	1047.46484	2515.07568													-163.96414	596.89020	2481.21899	-564.57678	134.14038	2372.45190				
382	3.810																												-42.11312	1257.14600	2449.91748				87.18954	1052.67847	2532.90552													-168.02353	599.67487	2500.32544	-564.39258	132.32326	2372.99585				
383	3.820																												-40.55288	1258.99829	2465.18335				91.70921	1058.66309	2550.86450													-172.52988	600.88220	2513.66699	-564.02020	129.86081	2374.58887				
384	3.830																												-39.49500	1260.69482	2480.11597				96.05587	1063.83411	2567.53979													-177.00557	602.13568	2526.23413	-563.52850	127.83915	2375.18188				
385	3.840																												-39.11774	1262.27991	2494.51245				99.48194	1068.96094	2583.36963													-183.16544	602.13129	2535.74048	-562.95819	125.57095	2377.04810				
386	3.850																												-39.30731	1263.74194	2507.93726				102.30724	1074.18884	2598.34424													-189.55894	600.81036	2544.75879	-561.74927	122.54659	2378.15747				
387	3.860																												-40.72781	1265.43811	2521.41406				103.68512	1079.71704	2613.15210													-197.92648	598.31860	2548.78906	-560.73627	120.91933	2378.64575				
388	3.870																												-42.17702	1266.75439	2533.57764				104.22546	1084.83545	2627.26709													-205.64105	598.45398	2556.56885	-557.48395	119.98293	2379.24854				
389	3.880																												-44.64145	1268.09363	2545.23853				103.75819	1089.43274	2640.35303													-211.06837	597.18079	2564.13037	-554.89166	120.19860	2378.32397				
390	3.890																												-47.44432	1269.21631	2556.71631				102.55192	1093.71667	2652.56128													-216.44862	598.07251	2570.80835	-550.48975	121.20696	2377.07227				
391	3.900																												-49.90231	1269.36011	2566.96045				100.79621	1097.83350	2664.05249													-221.04726	598.16650	2577.59814	-545.97131	122.28498	2376.10376				
392	3.910																												-52.94455	1269.57434	2577.41870				98.10966	1100.88037	2675.69263													-225.95491	599.63080	2585.58325	-542.01917	123.41616	2374.88965				
393	3.920																												-56.44449	1270.09326	2587.25146				94.85525	1104.00256	2686.17139													-230.91940	602.99121	2591.89038	-537.74237	124.07715	2372.88477				
394	3.930																												-59.61843	1270.41479	2596.49170				91.26586	1105.85388	2695.81421													-233.70282	603.70264	2595.02563	-533.75696	123.76051	2371.79077				
395	3.940																												-63.07804	1270.75696	2606.71875				86.85190	1107.61487	2705.58228													-237.44832	608.56226	2599.65845	-527.81378	124.20663	2366.80688				
396	3.950																												-66.68045	1270.67175	2614.70093				82.16928	1108.49390	2714.80469													-240.54851	613.10449	2603.04199	-524.06848	123.78432	2364.92480				
397	3.960																												-70.76688	1271.36829	2623.99731				76.78265	1108.91064	2724.15015													-243.32527	617.09686	2606.16846	-519.75867	123.56751	2361.76587				
398	3.970																												-74.99493	1270.71265	2631.94629				71.26147	1108.68298	2732.38745													-245.18953	619.65753	2608.73975	-515.11200	123.38017	2360.65381				
399	3.980																												-79.24063	1270.45288	2638.88818				65.30038	1107.76660	2740.79443													-245.22446	623.21204	2613.38623	-510.31677	124.37499	2358.46851				
400	3.990																												-83.57471	1270.14404	2646.45361				59.41988	1105.93982	2748.17798													-244.26756	625.89630	2617.58447	-506.15356	125.81789	2358.66943				
401	4.000																												-88.23090	1269.67847	2653.76978				52.64271	1104.54309	2756.22437													-242.79564	627.67969	2623.33252	-503.29694	127.82053	2359.04321				
402	4.010																												-92.40949	1269.11670	2660.06836				45.46738	1101.95020	2764.15234													-240.36662	628.04175	2628.14307	-500.21252	130.31792	2359.85986				
403	4.020																												-97.18955	1268.34375	2667.16333				37.65228	1099.66602	2771.79126													-237.85886	629.48969	2633.50610	-498.75983	132.38033	2362.23682				
404	4.030																												-101.84303	1267.53735	2673.33862				29.94486	1096.32605	2779.90210													-234.36115	628.73901	2638.28540	-498.27548	133.88794	2363.11499				
405	4.040																												-106.14824	1266.01184	2678.85449				21.80961	1092.66785	2787.26929													-230.44545	628.06256	2642.69482	-498.23645	135.12935	2364.07544				
406	4.050																												-111.20138	1264.62720	2684.94824				13.52704	1088.64209	2794.88525													-226.69618	628.38568	2649.17529	-498.57770	135.73329	2365.14453				
407	4.060																												-115.76487	1263.36865	2689.97900				4.45715	1084.45752	2801.98828													-221.87303	627.35492	2654.51880	-498.92654	135.87260	2365.71631				
408	4.070																												-120.59743	1261.62964	2695.91528				-5.01797	1080.09692	2809.90479													-217.34093	627.05994	2661.72119	-499.41257	135.65211	2366.04272				
409	4.080																												-125.00493	1259.85510	2701.31299				-14.20405	1074.82922	2816.63232													-212.35966	627.09351	2668.25171	-500.24634	135.20471	2366.17749				
410	4.090																												-129.90096	1258.36987	2706.56982				-24.35384	1070.19824	2823.71289													-207.66591	628.07037	2675.51880	-501.23642	134.72633	2365.83325				
